<svg width="17" height="19" viewBox="0 0 17 19" fill="none" xmlns="http://www.w3.org/2000/svg">
<path d="M9.77393 14.875C9.49268 14.875 9.35205 14.7344 9.35205 14.4531V6.85938C9.35205 6.57812 9.49268 6.4375 9.77393 6.4375H10.6177C10.8989 6.4375 11.0396 6.57812 11.0396 6.85938V14.4531C11.0396 14.7344 10.8989 14.875 10.6177 14.875H9.77393ZM15.5396 3.0625C15.7036 3.0625 15.8325 3.12109 15.9263 3.23828C16.0435 3.33203 16.1021 3.46094 16.1021 3.625V4.1875C16.1021 4.35156 16.0435 4.49219 15.9263 4.60938C15.8325 4.70313 15.7036 4.75 15.5396 4.75H14.9771V16.5625C14.9771 17.0312 14.813 17.4297 14.4849 17.7578C14.1567 18.0859 13.7583 18.25 13.2896 18.25H3.16455C2.6958 18.25 2.29736 18.0859 1.96924 17.7578C1.64111 17.4297 1.47705 17.0312 1.47705 16.5625V4.75H0.91455C0.750488 4.75 0.609863 4.70313 0.492675 4.60938C0.398925 4.49219 0.35205 4.35156 0.35205 4.1875V3.625C0.35205 3.46094 0.398925 3.33203 0.492675 3.23828C0.609863 3.12109 0.750488 3.0625 0.91455 3.0625H3.79736L4.99268 1.05859C5.1333 0.847656 5.34424 0.660156 5.62549 0.496094C5.90674 0.332031 6.18799 0.25 6.46924 0.25H9.98486C10.1724 0.25 10.3599 0.285156 10.5474 0.355469C10.7349 0.425781 10.9106 0.53125 11.0747 0.671875C11.2388 0.789062 11.3677 0.917969 11.4614 1.05859L12.6567 3.0625H15.5396ZM6.39893 2.04297L5.76611 3.0625H10.688L10.0552 2.04297C10.0083 1.97266 9.94971 1.9375 9.87939 1.9375H6.57471C6.50439 1.9375 6.4458 1.97266 6.39893 2.04297ZM13.2896 16.5625V4.75H3.16455V16.5625H13.2896ZM5.83643 14.875C5.55518 14.875 5.41455 14.7344 5.41455 14.4531V6.85938C5.41455 6.57812 5.55518 6.4375 5.83643 6.4375H6.68018C6.96143 6.4375 7.10205 6.57812 7.10205 6.85938V14.4531C7.10205 14.7344 6.96143 14.875 6.68018 14.875H5.83643Z" fill="#F86A6A"/>
</svg>
