<svg width="16" height="23" viewBox="0 0 16 23" fill="none" xmlns="http://www.w3.org/2000/svg">
<path d="M10.9219 14.6719C10.1198 15.474 9.14583 15.875 8 15.875C6.85417 15.875 5.88021 15.474 5.07812 14.6719C4.27604 13.8698 3.875 12.8958 3.875 11.75V4.875C3.875 3.72917 4.27604 2.75521 5.07812 1.95312C5.88021 1.15104 6.85417 0.75 8 0.75C9.14583 0.75 10.1198 1.15104 10.9219 1.95312C11.724 2.75521 12.125 3.72917 12.125 4.875V11.75C12.125 12.8958 11.724 13.8698 10.9219 14.6719ZM14.875 9C15.0755 9 15.2331 9.07161 15.3477 9.21484C15.4909 9.32943 15.5625 9.48698 15.5625 9.6875V11.75C15.5625 13.6406 14.9323 15.3021 13.6719 16.7344C12.4401 18.138 10.8932 18.9688 9.03125 19.2266V20.6875H11.4375C11.638 20.6875 11.7956 20.7448 11.9102 20.8594C12.0534 21.0026 12.125 21.1745 12.125 21.375V22.0625C12.125 22.263 12.0534 22.4206 11.9102 22.5352C11.7956 22.6784 11.638 22.75 11.4375 22.75H4.5625C4.36198 22.75 4.1901 22.6784 4.04688 22.5352C3.93229 22.4206 3.875 22.263 3.875 22.0625V21.375C3.875 21.1745 3.93229 21.0026 4.04688 20.8594C4.1901 20.7448 4.36198 20.6875 4.5625 20.6875H6.96875V19.2266C5.10677 18.9688 3.54557 18.0951 2.28516 16.6055C1.05339 15.0872 0.4375 13.3542 0.4375 11.4062V9.6875C0.4375 9.48698 0.494792 9.32943 0.609375 9.21484C0.752604 9.07161 0.924479 9 1.125 9H1.8125C2.01302 9 2.17057 9.07161 2.28516 9.21484C2.42839 9.32943 2.5 9.48698 2.5 9.6875V11.4922C2.5 12.9531 2.97266 14.2422 3.91797 15.3594C4.86328 16.4766 6.03776 17.0924 7.44141 17.207C9.07422 17.3789 10.4922 16.9206 11.6953 15.832C12.8984 14.7148 13.5 13.3542 13.5 11.75V9.6875C13.5 9.48698 13.5573 9.32943 13.6719 9.21484C13.8151 9.07161 13.987 9 14.1875 9H14.875Z" fill="#8EEDC7"/>
</svg>
