<svg width="14" height="15" viewBox="0 0 14 15" fill="none" xmlns="http://www.w3.org/2000/svg">
<path d="M4.5 14.9688H1.5C1.08333 14.9688 0.729167 14.8229 0.4375 14.5312C0.145833 14.2396 0 13.8854 0 13.4688V2.46875C0 2.05208 0.145833 1.69792 0.4375 1.40625C0.729167 1.11458 1.08333 0.96875 1.5 0.96875H4.5C4.91667 0.96875 5.27083 1.11458 5.5625 1.40625C5.85417 1.69792 6 2.05208 6 2.46875V13.4688C6 13.8854 5.85417 14.2396 5.5625 14.5312C5.27083 14.8229 4.91667 14.9688 4.5 14.9688ZM14 13.4688C14 13.8854 13.8542 14.2396 13.5625 14.5312C13.2708 14.8229 12.9167 14.9688 12.5 14.9688H9.5C9.08333 14.9688 8.72917 14.8229 8.4375 14.5312C8.14583 14.2396 8 13.8854 8 13.4688V2.46875C8 2.05208 8.14583 1.69792 8.4375 1.40625C8.72917 1.11458 9.08333 0.96875 9.5 0.96875H12.5C12.9167 0.96875 13.2708 1.11458 13.5625 1.40625C13.8542 1.69792 14 2.05208 14 2.46875V13.4688Z" fill="#2186EB"/>
</svg>
